# xmcd
#
# Track frame offsets:
#  150
#  15776
#  32770
#  51801
#  66396
#  77705
#  95348
#  110251
#  124815
#  140176
#  156425
#  184373
#
# Disc length: 2651 seconds
#
# Revision: 0
# Processed by: cddbd v1.5.2PL0 Copyright (c) Steve Scherf et al.
# Submitted via: Collectorz.com_Music_Collector 6.9
#
DISCID=a20a590c
DTITLE=Various Artist - Für mich soll's rote Rosen regnen
DYEAR=2008
DGENRE=Pop - Schlager
TTITLE0=Die 12 Cellisten der Berliner Philharmonie - Für mich soll's rote Rosen regnen
TTITLE1=Edzard Reuter - Evelin Dahm - Für mich soll's rote Rosen regnen
TTITLE2=Ute Lemper - Für mich soll's rote Rosen regnen
TTITLE3=Marianne Rosenberg - Für mich soll's rote Rosen regnen
TTITLE4=Dieter Hallervorden - Für mich soll's rote Rosen regnen
TTITLE5=Extrabreit - Für mich soll's rote Rosen regnen
TTITLE6=Rolf Kühn Group - Für mich soll's rote Rosen regnen
TTITLE7=Nina Hagen - Für mich soll's rote Rosen regnen
TTITLE8=Judy Winter - Für mich soll's rote Rosen regnen
TTITLE9=Vokalensemble der KWG - Für mich soll's rote Rosen regnen
TTITLE10=Berlin rockin' Blues all Stars - Für mich soll's rote Rosen regnen
TTITLE11=Hildegard Knef - Für mich soll's rote Rosen regnen
EXTD=
EXTT0=
EXTT1=
EXTT2=
EXTT3=
EXTT4=
EXTT5=
EXTT6=
EXTT7=
EXTT8=
EXTT9=
EXTT10=
EXTT11=
PLAYORDER=
